<?xml version="1.0" encoding="UTF-8"?>
<svg id="Calque_1" xmlns="http://www.w3.org/2000/svg" version="1.1" viewBox="0 0 40.98 40.98">
  <!-- Generator: Adobe Illustrator 29.8.4, SVG Export Plug-In . SVG Version: 2.1.1 Build 6)  -->
  <defs>
    <style>
      .st0 {
        fill: #0c144e;
      }
    </style>
  </defs>
  <path class="st0" d="M40.98,0H0s0,0,0,0v40.98h40.98s0-40.98,0-40.98ZM15.87,29.42h-3.97v-12.75h3.97v12.75ZM13.88,14.93c-1.27,0-2.3-1.03-2.3-2.3s1.03-2.3,2.3-2.3,2.3,1.03,2.3,2.3-1.03,2.3-2.3,2.3ZM30.71,29.42h-3.96v-6.2c0-1.48-.03-3.38-2.06-3.38s-2.38,1.61-2.38,3.27v6.31h-3.96v-12.75h3.8v1.74h.05c.53-1,1.82-2.06,3.75-2.06,4.01,0,4.75,2.64,4.75,6.07v6.99Z"/>
</svg>