<?xml version="1.0" encoding="UTF-8"?>
<svg id="Calque_1" xmlns="http://www.w3.org/2000/svg" version="1.1" viewBox="0 0 177.13 45.13">
  <!-- Generator: Adobe Illustrator 29.8.4, SVG Export Plug-In . SVG Version: 2.1.1 Build 6)  -->
  <defs>
    <style>
      .st0 {
        fill: #0c144e;
      }

      .st1 {
        fill: #8788ff;
      }
    </style>
  </defs>
  <path class="st0" d="M45.13,6.52l-.64,13.47h-2.4v-6.51L31.65,3.04h-6.51V.64l13.47-.64,6.52,6.52Z"/>
  <path class="st0" d="M6.52,0l13.47.64v2.4h-6.51L3.04,13.48v6.51H.64L0,6.52,6.52,0Z"/>
  <path class="st0" d="M0,38.61l.64-13.47h2.4v6.51l10.43,10.43h6.51v2.4l-13.47.64-6.52-6.52Z"/>
  <path class="st0" d="M38.61,45.13l-13.47-.64v-2.4h6.51l10.43-10.43v-6.51h2.4l.64,13.47-6.52,6.52Z"/>
  <path class="st0" d="M23.96,15.47c1.62,2.16,3.54,4.08,5.7,5.7v2.78c-2.16,1.62-4.08,3.54-5.7,5.7h-2.78c-1.62-2.16-3.54-4.08-5.7-5.7v-2.78c2.16-1.62,4.08-3.54,5.7-5.7h2.78Z"/>
  <path class="st0" d="M172.81,22.11c-1.44,0-2.58-.3-3.41-.9-.83-.61-1.28-1.46-1.35-2.55h2.41c.08.52.32.91.72,1.17.4.24.98.37,1.73.37,1.28,0,1.91-.37,1.91-1.12,0-.3-.1-.53-.3-.7-.19-.17-.51-.29-.97-.38l-2.2-.42c-1.95-.38-2.93-1.3-2.93-2.76,0-.94.37-1.69,1.12-2.25.74-.57,1.77-.85,3.08-.85s2.35.29,3.11.87c.78.57,1.21,1.37,1.3,2.41h-2.4c-.12-.5-.36-.86-.7-1.08-.33-.23-.82-.35-1.45-.35-.57,0-1,.09-1.3.27-.3.18-.45.44-.45.78,0,.26.09.46.28.62s.49.27.9.35l2.25.43c1.02.2,1.77.53,2.25,1,.48.47.72,1.09.72,1.88,0,1.01-.37,1.8-1.12,2.36-.74.57-1.81.85-3.21.85Z"/>
  <path class="st0" d="M156.77,21.91v-7.51h-1.23v-2.48h2.55v1.6h.7c.38-.57.86-1,1.45-1.32.59-.31,1.31-.47,2.16-.47,1.37,0,2.42.38,3.16,1.13.75.75,1.13,1.76,1.13,3.01v6.03h-2.48v-5.56c0-.79-.21-1.39-.63-1.8-.41-.41-1.03-.62-1.85-.62s-1.41.21-1.85.62c-.42.41-.63,1.01-.63,1.8v5.56h-2.48Z"/>
  <path class="st0" d="M149.48,22.11c-1.08,0-2.01-.21-2.81-.63-.79-.43-1.4-1.04-1.85-1.81-.43-.78-.65-1.69-.65-2.75s.22-1.99.65-2.76c.44-.78,1.07-1.38,1.86-1.8.8-.42,1.73-.63,2.8-.63s2.02.21,2.8.63c.79.42,1.4,1.02,1.83,1.8s.65,1.7.65,2.76-.22,1.98-.65,2.76c-.43.78-1.04,1.38-1.83,1.8-.79.42-1.72.63-2.8.63ZM149.48,19.94c.89,0,1.58-.27,2.06-.8.49-.54.73-1.29.73-2.23s-.24-1.7-.73-2.23c-.49-.53-1.18-.8-2.06-.8s-1.6.27-2.1.8c-.49.53-.73,1.27-.73,2.21s.24,1.7.73,2.25c.5.53,1.2.8,2.1.8Z"/>
  <path class="st0" d="M140.24,21.91v-9.99h2.48v9.99h-2.48ZM141.48,10.82c-.39,0-.72-.13-1-.4-.27-.28-.4-.61-.4-1s.13-.72.4-.98c.28-.28.61-.42,1-.42s.72.14.98.42c.28.27.42.59.42.98s-.14.72-.42,1c-.27.27-.59.4-.98.4Z"/>
  <path class="st0" d="M135.97,21.91c-.65,0-1.17-.17-1.53-.5-.36-.33-.53-.84-.53-1.51v-6.04h-1.76v-1.93h1.78v-3h2.43v3h2.41v1.93h-2.38v6.11h2.61v1.95h-3.03Z"/>
  <path class="st0" d="M124.77,22.09c-1.37,0-2.42-.36-3.16-1.08-.73-.73-1.1-1.72-1.1-2.96v-6.13h2.48v5.63c0,.78.2,1.37.6,1.76.4.39.99.58,1.78.58.83,0,1.47-.21,1.91-.63.44-.42.67-1.02.67-1.78v-5.56h2.48v7.51h1.25v2.48h-2.55v-1.6h-.7c-.39.58-.88,1.02-1.46,1.33-.58.3-1.31.45-2.2.45Z"/>
  <path class="st0" d="M116.1,21.91V7.92h2.48v13.98h-2.48Z"/>
  <path class="st0" d="M109.35,22.11c-1.08,0-2.01-.21-2.81-.63-.79-.43-1.4-1.04-1.85-1.81-.43-.78-.65-1.69-.65-2.75s.22-1.99.65-2.76c.44-.78,1.07-1.38,1.86-1.8.8-.42,1.73-.63,2.8-.63s2.02.21,2.8.63c.79.42,1.4,1.02,1.83,1.8s.65,1.7.65,2.76-.22,1.98-.65,2.76c-.43.78-1.04,1.38-1.83,1.8-.79.42-1.72.63-2.8.63ZM109.35,19.94c.89,0,1.58-.27,2.06-.8.49-.54.73-1.29.73-2.23s-.24-1.7-.73-2.23c-.49-.53-1.18-.8-2.06-.8s-1.6.27-2.1.8c-.49.53-.73,1.27-.73,2.21s.24,1.7.73,2.25c.5.53,1.2.8,2.1.8Z"/>
  <path class="st0" d="M97.65,22.11c-1.79,0-3.21-.39-4.28-1.17-1.05-.79-1.63-1.88-1.73-3.26h2.61c.09.78.43,1.37,1.02,1.76.6.4,1.43.6,2.48.6.93,0,1.64-.16,2.11-.47.49-.32.73-.79.73-1.4,0-.48-.16-.86-.48-1.15-.31-.29-.8-.5-1.48-.65l-2.73-.55c-1.22-.26-2.14-.69-2.76-1.3-.61-.61-.92-1.4-.92-2.36,0-1.22.46-2.18,1.38-2.88.92-.71,2.18-1.07,3.78-1.07s2.91.37,3.9,1.12c1,.73,1.56,1.75,1.7,3.06h-2.61c-.33-1.44-1.38-2.16-3.13-2.16-.79,0-1.41.15-1.86.45-.44.29-.67.7-.67,1.25,0,.85.61,1.4,1.83,1.65l2.83.58c1.27.26,2.2.7,2.8,1.33.61.62.92,1.45.92,2.48,0,1.3-.48,2.31-1.43,3.05-.94.72-2.28,1.08-4,1.08Z"/>
  <path class="st0" d="M80.79,22.11c-1.79,0-3.21-.39-4.28-1.17-1.05-.79-1.63-1.88-1.73-3.26h2.61c.09.78.43,1.37,1.02,1.76.6.4,1.43.6,2.48.6.93,0,1.64-.16,2.11-.47.49-.32.73-.79.73-1.4,0-.48-.16-.86-.48-1.15-.31-.29-.8-.5-1.48-.65l-2.73-.55c-1.22-.26-2.14-.69-2.76-1.3-.61-.61-.92-1.4-.92-2.36,0-1.22.46-2.18,1.38-2.88.92-.71,2.18-1.07,3.78-1.07s2.91.37,3.9,1.12c1,.73,1.56,1.75,1.7,3.06h-2.61c-.33-1.44-1.38-2.16-3.13-2.16-.79,0-1.41.15-1.86.45-.44.29-.67.7-.67,1.25,0,.85.61,1.4,1.83,1.65l2.83.58c1.27.26,2.2.7,2.8,1.33.61.62.92,1.45.92,2.48,0,1.3-.48,2.31-1.43,3.05-.94.72-2.28,1.08-4,1.08Z"/>
  <path class="st0" d="M57.56,21.91v-13.49h3.51l4.21,9.94h.07l4.2-9.94h3.5v13.49h-2.53v-10.06h-.07l-4.15,10.06h-2.15l-4.15-10.07h-.07v10.07h-2.38Z"/>
  <path class="st1" d="M60.7,34.82c-.53,0-.99-.09-1.38-.27-.39-.18-.7-.43-.93-.75-.23-.32-.35-.7-.38-1.12h.83c.05.46.24.82.57,1.06.33.24.77.37,1.32.37s.92-.11,1.2-.32c.28-.22.42-.53.42-.92,0-.32-.1-.58-.31-.78-.2-.2-.51-.35-.93-.44l-1.06-.23c-.56-.12-.98-.33-1.28-.63-.3-.3-.45-.68-.45-1.15,0-.37.09-.69.27-.98.19-.29.45-.52.79-.68.34-.16.74-.25,1.2-.25s.89.08,1.24.25c.36.17.64.41.86.71.22.31.35.66.39,1.07h-.83c-.07-.44-.26-.76-.55-.99-.29-.23-.68-.34-1.15-.34-.44,0-.79.1-1.05.31-.27.2-.4.47-.4.82,0,.28.09.51.28.71.19.19.5.34.93.43l1.1.25c.57.12,1,.34,1.28.65.29.31.43.7.43,1.19,0,.61-.21,1.09-.64,1.46-.42.37-1.02.55-1.78.55ZM64.49,36.76v-7.14h.76v.87h.03c.29-.65.83-.97,1.61-.97.42,0,.8.11,1.11.33.32.22.56.53.74.93.18.4.26.86.26,1.39s-.09.99-.26,1.39c-.18.4-.42.71-.74.93-.32.22-.69.33-1.11.33-.78,0-1.31-.32-1.61-.97h-.03v2.91h-.76ZM66.7,34.14c.47,0,.84-.18,1.12-.54.28-.36.42-.84.42-1.44s-.14-1.07-.42-1.43c-.28-.36-.65-.54-1.12-.54s-.82.14-1.07.43c-.25.29-.37.66-.37,1.12v.83c0,.46.12.83.37,1.11.25.28.61.43,1.07.44ZM71.63,34.82c-.5,0-.91-.14-1.22-.42-.31-.28-.47-.65-.47-1.1,0-.48.15-.85.46-1.11.31-.27.75-.4,1.32-.4h1.57v-.27c0-.42-.11-.74-.33-.97-.22-.23-.52-.34-.92-.34-.33,0-.6.08-.81.23-.21.15-.35.36-.41.64h-.78c.07-.47.29-.84.66-1.12.37-.28.82-.42,1.36-.42.61,0,1.09.17,1.44.51.35.33.52.81.52,1.42v3.27h-.73v-.94h-.03c-.13.32-.34.57-.64.76-.29.19-.62.28-.99.28ZM71.79,34.15c.28,0,.54-.07.76-.2.23-.14.41-.32.54-.54.14-.23.2-.49.2-.77v-.25h-1.51c-.37,0-.65.08-.84.23-.19.15-.28.37-.28.64s.1.49.31.65c.2.16.48.24.82.24ZM75.72,34.72v-5.1h.72v1.08h.03c.11-.33.3-.6.57-.81.27-.2.6-.31.99-.31h.37v.68h-.41c-.48,0-.86.16-1.12.48-.26.32-.39.75-.39,1.29v2.68h-.76ZM79.53,34.72v-7.14h.76v4.49h.03l2.37-2.45h.93l-2.13,2.16,2.34,2.94h-.94l-1.92-2.46-.67.59v1.87h-.76ZM84.66,34.72v-5.1h.76v5.1h-.76ZM85.04,28.86c-.14,0-.26-.05-.37-.14-.1-.1-.14-.22-.14-.37s.05-.26.14-.36c.1-.1.22-.15.37-.15s.26.05.36.15c.1.1.15.22.15.36s-.05.26-.15.37c-.1.1-.22.14-.36.14ZM87.09,34.72v-5.1h.76v.85h.03c.15-.31.36-.54.63-.7.27-.16.59-.25.95-.25s.7.09.99.26c.28.18.5.42.66.73.16.31.24.66.24,1.06v3.13h-.76v-3.02c0-.46-.12-.82-.37-1.08-.24-.27-.57-.4-1-.4s-.77.13-1.01.4c-.24.26-.36.62-.36,1.08v3.02h-.76ZM94.88,36.86c-.61,0-1.12-.15-1.53-.45-.41-.29-.65-.69-.71-1.18h.82c.06.29.22.52.47.69.25.16.56.25.94.25.49,0,.87-.14,1.14-.42.28-.27.42-.65.42-1.13v-.87h-.03c-.12.31-.32.54-.59.71-.27.17-.59.25-.96.25-.43,0-.81-.11-1.14-.32-.32-.22-.57-.53-.76-.92-.18-.39-.27-.84-.27-1.36s.09-.97.27-1.36c.18-.39.43-.69.76-.91.33-.22.71-.33,1.14-.33.37,0,.69.09.96.25.27.17.47.41.59.71h.03v-.86h.76v5.05c0,.67-.21,1.2-.63,1.59-.41.4-.97.59-1.67.59ZM95.01,34.03c.42,0,.76-.14,1.02-.42.26-.28.39-.64.39-1.1v-.78c0-.45-.13-.82-.39-1.1-.25-.28-.59-.42-1.02-.42-.48,0-.87.17-1.16.52-.28.35-.42.81-.42,1.38s.14,1.04.42,1.38c.29.35.67.52,1.16.52ZM103.87,34.72h-.78v-6.18h-2.34v-.7h5.45v.7h-2.34v6.18ZM106.56,34.72v-5.1h.72v1.08h.03c.11-.33.3-.6.57-.81.27-.2.6-.31.99-.31h.37v.68h-.41c-.48,0-.86.16-1.12.48-.26.32-.39.75-.39,1.29v2.68h-.76ZM112.2,34.82c-.37,0-.69-.08-.98-.25-.28-.17-.5-.4-.65-.71-.15-.31-.23-.65-.23-1.05v-3.19h.76v3.02c0,.46.12.82.35,1.09.23.26.56.39.97.39s.77-.14,1.03-.41c.26-.27.39-.63.39-1.07v-3.02h.76v5.1h-.76v-.91h-.03c-.14.32-.35.57-.63.75-.28.17-.6.25-.98.25ZM117.9,34.82c-.6,0-1.09-.15-1.46-.44-.37-.3-.58-.7-.61-1.19h.76c.03.31.16.55.39.72.23.16.55.25.94.25.37,0,.65-.07.84-.21.19-.15.29-.35.29-.62,0-.41-.29-.68-.86-.81l-.81-.17c-.91-.19-1.36-.64-1.36-1.34,0-.44.16-.8.49-1.07.33-.28.76-.42,1.29-.42s.95.14,1.3.42c.35.28.55.65.6,1.12h-.75c-.06-.28-.19-.5-.4-.65-.2-.15-.46-.23-.78-.23s-.57.07-.76.21c-.19.14-.28.32-.28.56,0,.19.07.35.2.47.14.11.35.2.65.26l.81.17c.45.1.79.26,1.02.5.23.23.35.54.35.91,0,.48-.17.86-.5,1.14-.33.28-.79.42-1.37.42ZM121.96,34.72c-.23,0-.4-.06-.54-.18-.13-.12-.2-.31-.2-.55v-3.76h-.89v-.61h.9v-1.53h.75v1.53h1.27v.61h-1.27v3.87h1.38v.61h-1.42ZM126.46,34.82c-.45,0-.86-.11-1.21-.32-.36-.22-.64-.53-.84-.93-.2-.4-.31-.88-.31-1.42s.1-1,.3-1.39c.2-.4.48-.7.82-.92.35-.22.75-.32,1.19-.32.42,0,.79.1,1.11.29.32.19.58.47.76.82.19.35.28.77.28,1.25v.38h-3.74c.02.57.18,1.02.48,1.36.3.33.68.5,1.15.5.33,0,.61-.08.84-.25.24-.17.4-.4.48-.68h.78c-.07.34-.21.63-.41.88-.2.24-.44.42-.73.55-.28.13-.6.2-.95.2ZM124.88,31.66h2.96c-.04-.45-.19-.81-.45-1.06-.25-.26-.58-.39-.98-.39s-.73.13-1,.39c-.27.25-.45.61-.53,1.06ZM131.74,34.82c-.42,0-.8-.11-1.11-.33-.32-.22-.56-.53-.74-.93-.18-.4-.26-.87-.26-1.39s.09-1,.26-1.39c.18-.4.42-.71.74-.93.32-.22.69-.33,1.11-.33.78,0,1.31.32,1.61.97h.03v-2.91h.76v7.14h-.76v-.87h-.03c-.29.65-.83.97-1.61.97ZM131.94,34.14c.46,0,.81-.14,1.06-.43.25-.29.38-.66.38-1.12v-.83c0-.46-.13-.83-.38-1.12-.25-.29-.6-.43-1.06-.43s-.84.18-1.12.54c-.28.36-.42.83-.42,1.43s.14,1.07.42,1.44c.28.36.66.54,1.12.54ZM138.48,34.72v-6.88h2.66c.69,0,1.23.19,1.62.56.4.37.59.88.59,1.53s-.2,1.15-.6,1.53c-.4.37-.93.56-1.61.56h-1.88v2.7h-.78ZM139.26,31.34h1.84c.45,0,.81-.13,1.07-.38.27-.25.4-.6.4-1.03s-.13-.78-.4-1.03c-.26-.25-.62-.38-1.07-.38h-1.84v2.82ZM145.65,34.82c-.5,0-.91-.14-1.22-.42-.31-.28-.47-.65-.47-1.1,0-.48.15-.85.46-1.11.31-.27.75-.4,1.32-.4h1.57v-.27c0-.42-.11-.74-.33-.97-.22-.23-.52-.34-.92-.34-.33,0-.6.08-.81.23-.21.15-.35.36-.41.64h-.78c.07-.47.29-.84.66-1.12.37-.28.82-.42,1.36-.42.61,0,1.09.17,1.44.51.35.33.52.81.52,1.42v3.27h-.73v-.94h-.03c-.13.32-.34.57-.64.76-.29.19-.62.28-.99.28ZM145.8,34.15c.28,0,.54-.07.76-.2.23-.14.4-.32.54-.54.14-.23.2-.49.2-.77v-.25h-1.51c-.37,0-.65.08-.84.23-.19.15-.28.37-.28.64s.1.49.31.65c.2.16.48.24.82.24ZM149.06,36.76v-.61h1.17l.51-1.39-2.14-5.13h.79l1.72,4.16h.03l1.52-4.16h.76l-1.93,5.1-.48,1.27c-.09.24-.18.42-.27.56-.09.14-.26.2-.49.2h-1.19ZM154.3,34.72v-5.1h.76v.85h.03c.12-.31.31-.54.57-.7.25-.16.56-.25.91-.25s.66.09.93.26c.27.17.48.42.62.75h.03c.16-.33.37-.58.65-.75.28-.18.59-.26.95-.26s.67.08.93.25c.27.16.48.4.63.7.15.3.22.65.22,1.06v3.19h-.76v-3.08c0-.45-.11-.79-.33-1.04-.22-.25-.52-.37-.9-.37s-.68.12-.91.37c-.22.24-.33.59-.33,1.04v3.08h-.76v-3.08c0-.45-.11-.79-.33-1.04-.22-.25-.52-.37-.9-.37s-.68.12-.91.37c-.22.24-.33.59-.33,1.04v3.08h-.76ZM165.2,34.82c-.45,0-.86-.11-1.21-.32-.36-.22-.64-.53-.84-.93-.2-.4-.31-.88-.31-1.42s.1-1,.3-1.39c.2-.4.48-.7.82-.92.35-.22.75-.32,1.19-.32s.79.1,1.11.29c.32.19.58.47.76.82.19.35.28.77.28,1.25v.38h-3.74c.02.57.18,1.02.48,1.36.3.33.68.5,1.15.5.33,0,.61-.08.84-.25.24-.17.4-.4.48-.68h.78c-.07.34-.21.63-.41.88-.2.24-.44.42-.73.55-.28.13-.6.2-.95.2ZM163.61,31.66h2.96c-.04-.45-.19-.81-.45-1.06-.25-.26-.58-.39-.98-.39s-.73.13-1,.39c-.27.25-.45.61-.53,1.06ZM168.65,34.72v-5.1h.76v.85h.03c.15-.31.36-.54.63-.7.27-.16.59-.25.95-.25s.7.09.99.26c.28.18.5.42.66.73.16.31.24.66.24,1.06v3.13h-.76v-3.02c0-.46-.12-.82-.37-1.08-.24-.27-.57-.4-1-.4s-.77.13-1.01.4c-.24.26-.36.62-.36,1.08v3.02h-.76ZM175.48,34.72c-.23,0-.4-.06-.54-.18-.13-.12-.2-.31-.2-.55v-3.76h-.89v-.61h.9v-1.53h.75v1.53h1.27v.61h-1.27v3.87h1.38v.61h-1.42Z"/>
</svg>