<?xml version="1.0" encoding="UTF-8"?>
<svg id="Calque_1" xmlns="http://www.w3.org/2000/svg" version="1.1" viewBox="0 0 40.98 40.98">
  <!-- Generator: Adobe Illustrator 29.8.4, SVG Export Plug-In . SVG Version: 2.1.1 Build 6)  -->
  <defs>
    <style>
      .st0 {
        fill: #0c144e;
      }

      .st1 {
        fill: #fff;
      }
    </style>
  </defs>
  <path class="st0" d="M40.98,0H0s0,0,0,0v40.98h40.98s0-40.98,0-40.98Z"/>
  <g>
    <path class="st1" d="M20.05,7.23c-6.83.22-12.47,5.75-12.81,12.58-.12,2.46.42,4.79,1.47,6.8l-1.48,6.64c-.06.3.2.57.5.5l6.64-1.48h0c2.01,1.05,4.31,1.59,6.75,1.48,6.81-.32,12.36-5.91,12.63-12.73.3-7.72-5.99-14.04-13.7-13.79ZM20.49,31.02c-1.93,0-3.74-.52-5.29-1.43-.15-.08-.29-.17-.43-.26l-4.24,1.13,1.13-4.24c-1.07-1.65-1.69-3.61-1.69-5.72,0-5.8,4.72-10.52,10.52-10.52s10.52,4.72,10.52,10.52-4.72,10.52-10.52,10.52Z"/>
    <path class="st1" d="M26.73,25.12c-.18.28-.38.53-.68.84-.67.67-1.61,1.01-2.56.92-1.7-.17-4.12-1.11-6.2-3.19-2.08-2.08-3.02-4.5-3.19-6.2-.1-.95.24-1.89.92-2.56.31-.31.56-.5.84-.69.51-.34,1.2-.11,1.39.46l.7,2.09c.19.57.11.94-.14,1.18l-.56.56c-.28.28-.32.7-.11,1.03.31.48.89,1.25,1.95,2.32,1.06,1.06,1.84,1.64,2.32,1.95.33.21.76.17,1.03-.11l.56-.56c.24-.25.61-.33,1.18-.14l2.09.7c.58.19.81.89.46,1.39Z"/>
  </g>
</svg>