<?xml version="1.0" encoding="UTF-8"?>
<svg id="Calque_1" xmlns="http://www.w3.org/2000/svg" version="1.1" viewBox="0 0 40.98 40.98">
  <!-- Generator: Adobe Illustrator 29.8.4, SVG Export Plug-In . SVG Version: 2.1.1 Build 6)  -->
  <defs>
    <style>
      .st0 {
        fill: #0c144e;
      }
    </style>
  </defs>
  <path class="st0" d="M23.83,20.3l-5.4-2.94c-.22-.13-.98.03-.98.29v5.73c0,.25.75.41.97.29l5.64-2.79c.23-.12,0-.45-.24-.58Z"/>
  <path class="st0" d="M0,0s0,0,0,0v40.98h40.98s0,0,0,0V0H0ZM31.46,23.37c0,2.72-2.2,4.92-4.92,4.92h-12.58c-2.72,0-4.92-2.2-4.92-4.92v-5.86c0-2.72,2.2-4.92,4.92-4.92h12.58c2.72,0,4.92,2.2,4.92,4.92v5.86Z"/>
</svg>