<?xml version="1.0" encoding="UTF-8"?>
<svg id="Calque_1" xmlns="http://www.w3.org/2000/svg" version="1.1" viewBox="0 0 88.38 26.77">
  <!-- Generator: Adobe Illustrator 29.8.4, SVG Export Plug-In . SVG Version: 2.1.1 Build 6)  -->
  <defs>
    <style>
      .st0 {
        fill: #fff;
      }
    </style>
  </defs>
  <g>
    <path class="st0" d="M43.33,12.13c.23.16.59.27.94.27.55,0,.86-.27.86-.7,0-.39-.23-.59-.78-.82-.67-.23-1.1-.59-1.1-1.17,0-.63.55-1.1,1.33-1.1.43,0,.7.08.9.2l-.16.43c-.12-.08-.39-.2-.78-.2-.55,0-.78.35-.78.63,0,.39.23.59.82.78.7.27,1.02.59,1.02,1.21s-.47,1.17-1.41,1.17c-.39,0-.82-.12-1.06-.27l.2-.43M46.69,11.39c0,.7.47,1.02,1.02,1.02.39,0,.63-.08.82-.16l.08.39c-.2.08-.51.2-.98.2-.9,0-1.45-.59-1.45-1.49s.55-1.6,1.37-1.6c.94,0,1.21.86,1.21,1.37v.27h-2.07M48.26,11.04c0-.35-.16-.86-.74-.86-.55,0-.78.51-.82.86h1.57ZM51.55,12.68c-.16.08-.47.16-.86.16-.9,0-1.45-.59-1.45-1.49s.63-1.57,1.57-1.57c.31,0,.59.08.74.16l-.12.39c-.12-.08-.31-.16-.63-.16-.67,0-1.06.51-1.06,1.14,0,.67.43,1.1,1.02,1.1.31,0,.51-.08.67-.16l.12.43M54.6,11.98c0,.31,0,.59.04.78h-.47l-.04-.47h0c-.12.23-.47.55-.98.55-.47,0-1.02-.27-1.02-1.29v-1.72h.55v1.6c0,.55.2.94.67.94.35,0,.63-.23.7-.51.04-.08.04-.16.04-.27v-1.8h.55v2.19M55.5,10.76c0-.35,0-.63-.04-.9h.47l.04.59h0c.12-.39.47-.63.82-.63h.16v.51h-.2c-.39,0-.63.27-.7.67v1.84h-.55v-2.07M57.77,9.32c-.2,0-.35-.16-.35-.35s.16-.35.35-.35.35.16.35.35-.12.35-.35.35h0M58.05,12.8h-.51v-2.94h.55v2.94h-.04ZM59.57,9.16v.7h.78v.39h-.78v1.6c0,.35.12.59.39.59.16,0,.23,0,.31-.04l.04.39c-.12.04-.27.08-.47.08-.23,0-.43-.08-.59-.23-.16-.16-.2-.43-.2-.78v-1.6h-.47v-.39h.47v-.55l.51-.16M61.22,9.86l.63,1.72c.08.2.16.43.2.59h0c.04-.16.12-.39.2-.63l.59-1.72h.55l-.82,2.11c-.39,1.02-.63,1.53-1.02,1.84-.27.23-.51.31-.67.35l-.12-.43c.12-.04.31-.12.47-.27.16-.12.31-.31.43-.59.04-.04.04-.08.04-.12s0-.08-.04-.12l-1.1-2.7h.67M43.33,18.2c.23.16.59.27.94.27.55,0,.86-.27.86-.7,0-.39-.23-.59-.78-.82-.67-.23-1.1-.59-1.1-1.17,0-.63.55-1.1,1.33-1.1.43,0,.7.08.9.2l-.16.43c-.12-.08-.39-.2-.78-.2-.55,0-.78.35-.78.63,0,.39.23.59.82.78.7.27,1.02.59,1.02,1.21s-.47,1.17-1.41,1.17c-.39,0-.82-.12-1.06-.27l.2-.43M46.97,15.23v.7h.78v.39h-.78v1.57c0,.35.12.59.39.59.16,0,.23,0,.31-.04l.04.39c-.12.04-.27.08-.47.08-.23,0-.43-.08-.59-.23-.16-.16-.2-.43-.2-.78v-1.6h-.47v-.39h.47v-.55l.51-.12M50.41,18.16c0,.27,0,.51.04.7h-.47l-.04-.35h0c-.16.23-.47.43-.9.43-.59,0-.9-.43-.9-.86,0-.7.63-1.1,1.76-1.1v-.08c0-.23-.08-.7-.67-.67-.27,0-.55.08-.78.23l-.12-.35c.23-.16.59-.23.98-.23.9,0,1.14.63,1.14,1.21v1.06M49.9,17.38c-.59,0-1.25.08-1.25.67,0,.35.23.51.51.51.39,0,.63-.23.7-.51,0-.04.04-.12.04-.16,0,0,0-.51,0-.51ZM51.27,16.71c0-.31,0-.55-.04-.78h.47l.04.47h0c.16-.27.47-.55.98-.55.39,0,1.06.23,1.06,1.25v1.76h-.55v-1.68c0-.47-.2-.86-.67-.86-.35,0-.63.23-.7.55-.04.08-.04.16-.04.23v1.76h-.55v-2.15M57.18,14.56v3.56c0,.27,0,.55.04.74h-.47l-.04-.51h0c-.16.31-.51.59-.98.59-.7,0-1.25-.59-1.25-1.49,0-.98.63-1.57,1.33-1.57.47,0,.74.2.9.43h0v-1.76h.47M56.64,17.1c0-.08,0-.16-.04-.23-.08-.35-.35-.63-.78-.63-.55,0-.9.47-.9,1.14,0,.59.31,1.1.86,1.1.35,0,.67-.23.78-.63.04-.08.04-.16.04-.23v-.51h.04ZM60.16,18.16c0,.27,0,.51.04.7h-.47l-.04-.35h0c-.16.23-.47.43-.9.43-.59,0-.9-.43-.9-.86,0-.7.63-1.1,1.76-1.1v-.08c0-.23-.08-.7-.67-.67-.27,0-.55.08-.78.23l-.12-.35c.23-.16.59-.23.98-.23.9,0,1.14.63,1.14,1.21v1.06M59.61,17.38c-.59,0-1.25.08-1.25.67,0,.35.23.51.51.51.39,0,.63-.23.7-.51,0-.04.04-.12.04-.16v-.51h0ZM61.02,16.83c0-.35,0-.63-.04-.9h.47l.04.59h.04c.12-.39.47-.63.82-.63h.16v.51h-.2c-.39,0-.63.27-.7.67v1.84h-.55l-.04-2.07M65.48,14.56v3.56c0,.27,0,.55.04.74h-.47l-.04-.51h0c-.16.31-.51.59-1.02.59-.7,0-1.25-.59-1.25-1.49,0-.98.59-1.57,1.33-1.57.47,0,.74.2.9.43h0v-1.76h.51M64.97,17.1c0-.08,0-.16-.04-.23-.08-.35-.39-.63-.78-.63-.55,0-.86.47-.86,1.14,0,.59.31,1.1.86,1.1.35,0,.7-.23.78-.63,0-.08.04-.16.04-.23v-.51ZM66.3,18.32c.16.12.43.2.7.2.39,0,.55-.2.55-.43,0-.27-.16-.39-.55-.55-.55-.2-.78-.47-.78-.82,0-.47.39-.86,1.02-.86.31,0,.55.08.7.2l-.12.39c-.12-.08-.31-.16-.59-.16-.31,0-.47.2-.47.39,0,.23.16.35.55.51.51.2.78.43.78.9,0,.51-.39.9-1.1.9-.31,0-.63-.08-.82-.2l.12-.47M72.96,18.75c-.2.08-.59.2-1.1.2-1.14,0-2.04-.74-2.04-2.07s.86-2.15,2.15-2.15c.51,0,.82.12.98.2l-.12.43c-.2-.08-.47-.16-.82-.16-.98,0-1.6.63-1.6,1.68s.59,1.64,1.57,1.64c.31,0,.67-.08.86-.16l.12.39M74.72,18.94c-.78,0-1.41-.59-1.41-1.53s.67-1.57,1.45-1.57c.86,0,1.41.63,1.41,1.49,0,1.1-.74,1.6-1.45,1.6h0M74.72,18.51c.51,0,.9-.47.9-1.14,0-.51-.23-1.14-.9-1.14-.63,0-.9.59-.9,1.14.04.67.39,1.14.9,1.14h0ZM79.3,18.04c0,.31,0,.59.04.78h-.47l-.04-.47h0c-.12.23-.47.55-.98.55-.47,0-1.02-.27-1.02-1.29v-1.72h.55v1.6c0,.55.16.94.67.94.35,0,.59-.23.7-.51.04-.08.04-.16.04-.27v-1.8h.55v2.19M80.2,16.71c0-.31,0-.55-.04-.78h.47l.04.47h0c.16-.27.47-.55.98-.55.39,0,1.06.23,1.06,1.25v1.76h-.55v-1.68c0-.47-.2-.86-.67-.86-.35,0-.63.23-.7.55-.04.08-.04.16-.04.23v1.76h-.55v-2.15M85.68,18.75c-.16.08-.43.16-.86.16-.9,0-1.45-.59-1.45-1.49s.63-1.57,1.57-1.57c.31,0,.59.08.74.16l-.12.39c-.12-.08-.31-.16-.63-.16-.67,0-1.06.51-1.06,1.14,0,.67.43,1.1,1.02,1.1.31,0,.51-.08.67-.16l.12.43M86.54,15.38c-.2,0-.35-.16-.35-.35s.16-.35.35-.35.35.16.35.35-.12.35-.35.35h0M86.81,18.87h-.55v-2.94h.55v2.94Z"/>
    <rect class="st0" x="87.71" y="14.56" width=".55" height="4.31"/>
    <g>
      <path class="st0" d="M10.84,10.53h-.51v2.86h.47c.67,0,1.21-.12,1.57-.35.35-.2.55-.59.55-1.1,0-.94-.7-1.41-2.07-1.41Z"/>
      <path class="st0" d="M29.94,18.98v-10.72h4.11v10.7l6.54-2.05L33,0,0,1.84l9.16,24.93,24.82-7.79h-4.04ZM16.4,13.58c-.27.47-.67.9-1.17,1.21s-1.14.55-1.84.7c-.7.16-1.49.23-2.39.23h-.63v3.21h-4.07v-10.69h4.78c1.8,0,3.21.31,4.23.9,1.02.59,1.53,1.53,1.53,2.74,0,.63-.16,1.17-.43,1.68ZM28.26,18.63c-.63.16-.7.2-1.33.31-.63.12-1.33.2-2.15.2-1.14,0-2.15-.12-3.01-.39-.9-.27-1.64-.63-2.27-1.1-.63-.47-1.1-1.06-1.41-1.72-.31-.7-.47-1.45-.47-2.27s.16-1.57.51-2.27c.35-.67.82-1.25,1.45-1.76.63-.47,1.37-.86,2.23-1.14s1.8-.39,2.82-.39c.78,0,1.53.04,2.19.16q.67.16,1.17.35v2.86c-.39-.23-.86-.43-1.37-.55-.51-.16-1.06-.23-1.6-.23-.94,0-1.68.27-2.27.74-.59.51-.86,1.21-.86,2.19,0,.47.08.9.27,1.29.2.35.43.67.74.9.31.23.67.43,1.1.55.43.12.86.2,1.33.2s.98-.04,1.45-.16.98-.23,1.49-.47v2.7ZM30.26,3.17c.47-.43,1.06-.63,1.76-.63s1.29.2,1.76.63c.47.39.7.98.7,1.72,0,.7-.23,1.29-.7,1.68s-1.06.63-1.76.63-1.29-.2-1.76-.63c-.47-.39-.7-.98-.7-1.68,0-.74.23-1.29.7-1.72Z"/>
    </g>
  </g>
  <path class="st0" d="M88.38,9.59c0,.67-.55,1.21-1.25,1.21s-1.25-.55-1.25-1.21.55-1.21,1.25-1.21,1.25.55,1.25,1.21ZM86.27,9.59c0,.51.39.9.86.9.51,0,.86-.39.86-.9s-.39-.9-.9-.9c-.47,0-.82.39-.82.9ZM86.97,10.18h-.35v-1.14c.08,0,.27-.04.51-.04s.35.04.43.08c.08.04.12.12.12.23s-.12.2-.27.23h0c.12.04.2.12.23.27.04.16.04.23.08.27h-.39s-.04-.16-.08-.23c-.04-.12-.08-.16-.2-.16h-.12v.47h.04ZM87.01,9.55h.12c.12,0,.2-.04.2-.12s-.08-.16-.2-.16h-.12v.27Z"/>
</svg>